<mxfile host="Electron" modified="2023-09-27T12:28:27.012Z" agent="Mozilla/5.0 (Windows NT 10.0; Win64; x64) AppleWebKit/537.36 (KHTML, like Gecko) draw.io/21.6.8 Chrome/114.0.5735.289 Electron/25.5.0 Safari/537.36" etag="3yOK45bZ24JUntHkA9Xy" version="21.6.8" type="device">
  <diagram name="Page-1" id="zxxZqoK5G2zMsTQJMLnt">
    <mxGraphModel dx="1302" dy="882" grid="1" gridSize="10" guides="1" tooltips="1" connect="1" arrows="1" fold="1" page="1" pageScale="1" pageWidth="850" pageHeight="1100" math="0" shadow="0">
      <root>
        <mxCell id="0" />
        <mxCell id="1" parent="0" />
        <mxCell id="2QA_1mcrMwD4LG4JVAwG-3" value="" style="rounded=0;whiteSpace=wrap;html=1;" vertex="1" parent="1">
          <mxGeometry x="509" y="140" width="180" height="150" as="geometry" />
        </mxCell>
        <mxCell id="Eg71fAkLW9j84qEQCppg-1" value="Core&lt;br&gt;(Implementation)" style="rounded=0;whiteSpace=wrap;html=1;" parent="1" vertex="1">
          <mxGeometry x="120" y="360" width="480" height="60" as="geometry" />
        </mxCell>
        <mxCell id="Xdr2WlgJJLAQH6nmDj9q-1" value="Abstractions" style="rounded=0;whiteSpace=wrap;html=1;" parent="1" vertex="1">
          <mxGeometry x="120" y="308" width="570" height="30" as="geometry" />
        </mxCell>
        <mxCell id="NvFys0lCn05nDbWXE7hC-2" value="DB" style="shape=cylinder3;whiteSpace=wrap;html=1;boundedLbl=1;backgroundOutline=1;size=15;" parent="1" vertex="1">
          <mxGeometry x="630" y="355" width="60" height="65" as="geometry" />
        </mxCell>
        <mxCell id="NvFys0lCn05nDbWXE7hC-3" value="Blazor Server UI" style="rounded=0;whiteSpace=wrap;html=1;" parent="1" vertex="1">
          <mxGeometry x="120" y="220" width="160" height="60" as="geometry" />
        </mxCell>
        <mxCell id="NvFys0lCn05nDbWXE7hC-4" value="Domain Presentation" style="rounded=0;whiteSpace=wrap;html=1;" parent="1" vertex="1">
          <mxGeometry x="320" y="220" width="160" height="60" as="geometry" />
        </mxCell>
        <mxCell id="NvFys0lCn05nDbWXE7hC-5" value="Domain DataManagement" style="rounded=0;whiteSpace=wrap;html=1;" parent="1" vertex="1">
          <mxGeometry x="519" y="220" width="160" height="60" as="geometry" />
        </mxCell>
        <mxCell id="NvFys0lCn05nDbWXE7hC-6" value="" style="shape=flexArrow;endArrow=classic;startArrow=classic;html=1;rounded=0;width=17.142857142857142;endSize=7.525714285714286;" parent="1" edge="1">
          <mxGeometry width="100" height="100" relative="1" as="geometry">
            <mxPoint x="120" y="100" as="sourcePoint" />
            <mxPoint x="690" y="100" as="targetPoint" />
          </mxGeometry>
        </mxCell>
        <mxCell id="NvFys0lCn05nDbWXE7hC-7" value="Internet" style="edgeLabel;html=1;align=center;verticalAlign=middle;resizable=0;points=[];" parent="NvFys0lCn05nDbWXE7hC-6" vertex="1" connectable="0">
          <mxGeometry x="0.0105" y="1" relative="1" as="geometry">
            <mxPoint as="offset" />
          </mxGeometry>
        </mxCell>
        <mxCell id="NvFys0lCn05nDbWXE7hC-11" value="HTTP" style="edgeLabel;html=1;align=center;verticalAlign=middle;resizable=0;points=[];" parent="NvFys0lCn05nDbWXE7hC-6" vertex="1" connectable="0">
          <mxGeometry x="0.0987" relative="1" as="geometry">
            <mxPoint x="17" as="offset" />
          </mxGeometry>
        </mxCell>
        <mxCell id="NvFys0lCn05nDbWXE7hC-8" value="Controller" style="rounded=0;whiteSpace=wrap;html=1;" parent="1" vertex="1">
          <mxGeometry x="519" y="180" width="160" height="30" as="geometry" />
        </mxCell>
        <mxCell id="NvFys0lCn05nDbWXE7hC-9" value="" style="endArrow=classic;html=1;rounded=0;" parent="1" edge="1">
          <mxGeometry width="50" height="50" relative="1" as="geometry">
            <mxPoint x="400" y="190" as="sourcePoint" />
            <mxPoint x="400" y="120" as="targetPoint" />
          </mxGeometry>
        </mxCell>
        <mxCell id="NvFys0lCn05nDbWXE7hC-10" value="" style="endArrow=classic;html=1;rounded=0;" parent="1" edge="1">
          <mxGeometry width="50" height="50" relative="1" as="geometry">
            <mxPoint x="583" y="116" as="sourcePoint" />
            <mxPoint x="583" y="156" as="targetPoint" />
          </mxGeometry>
        </mxCell>
        <mxCell id="NvFys0lCn05nDbWXE7hC-12" value="" style="endArrow=classic;html=1;rounded=0;" parent="1" edge="1">
          <mxGeometry width="50" height="50" relative="1" as="geometry">
            <mxPoint x="159.71" y="190" as="sourcePoint" />
            <mxPoint x="159.71" y="120" as="targetPoint" />
          </mxGeometry>
        </mxCell>
        <mxCell id="NvFys0lCn05nDbWXE7hC-13" value="Core&lt;br&gt;(Implementation)" style="rounded=0;whiteSpace=wrap;html=1;" parent="1" vertex="1">
          <mxGeometry x="120" y="760" width="480" height="60" as="geometry" />
        </mxCell>
        <mxCell id="NvFys0lCn05nDbWXE7hC-14" value="Abstractions" style="rounded=0;whiteSpace=wrap;html=1;" parent="1" vertex="1">
          <mxGeometry x="120" y="708" width="570" height="30" as="geometry" />
        </mxCell>
        <mxCell id="NvFys0lCn05nDbWXE7hC-15" value="DB" style="shape=cylinder3;whiteSpace=wrap;html=1;boundedLbl=1;backgroundOutline=1;size=15;" parent="1" vertex="1">
          <mxGeometry x="630" y="755" width="60" height="65" as="geometry" />
        </mxCell>
        <mxCell id="NvFys0lCn05nDbWXE7hC-16" value="Blazor Server UI" style="rounded=0;whiteSpace=wrap;html=1;" parent="1" vertex="1">
          <mxGeometry x="120" y="620" width="160" height="60" as="geometry" />
        </mxCell>
        <mxCell id="NvFys0lCn05nDbWXE7hC-17" value="Domain Presentation" style="rounded=0;whiteSpace=wrap;html=1;" parent="1" vertex="1">
          <mxGeometry x="320" y="620" width="160" height="60" as="geometry" />
        </mxCell>
        <mxCell id="NvFys0lCn05nDbWXE7hC-18" value="Domain DataManagement" style="rounded=0;whiteSpace=wrap;html=1;" parent="1" vertex="1">
          <mxGeometry x="530" y="620" width="160" height="60" as="geometry" />
        </mxCell>
        <mxCell id="NvFys0lCn05nDbWXE7hC-19" value="" style="shape=flexArrow;endArrow=classic;startArrow=classic;html=1;rounded=0;width=17.142857142857142;endSize=7.525714285714286;" parent="1" edge="1">
          <mxGeometry width="100" height="100" relative="1" as="geometry">
            <mxPoint x="120" y="500" as="sourcePoint" />
            <mxPoint x="690" y="500" as="targetPoint" />
          </mxGeometry>
        </mxCell>
        <mxCell id="NvFys0lCn05nDbWXE7hC-20" value="Internet" style="edgeLabel;html=1;align=center;verticalAlign=middle;resizable=0;points=[];" parent="NvFys0lCn05nDbWXE7hC-19" vertex="1" connectable="0">
          <mxGeometry x="0.0105" y="1" relative="1" as="geometry">
            <mxPoint as="offset" />
          </mxGeometry>
        </mxCell>
        <mxCell id="NvFys0lCn05nDbWXE7hC-21" value="HTTP" style="edgeLabel;html=1;align=center;verticalAlign=middle;resizable=0;points=[];" parent="NvFys0lCn05nDbWXE7hC-19" vertex="1" connectable="0">
          <mxGeometry x="0.0987" relative="1" as="geometry">
            <mxPoint x="17" as="offset" />
          </mxGeometry>
        </mxCell>
        <mxCell id="NvFys0lCn05nDbWXE7hC-23" value="" style="endArrow=classic;html=1;rounded=0;" parent="1" edge="1">
          <mxGeometry width="50" height="50" relative="1" as="geometry">
            <mxPoint x="480" y="649.71" as="sourcePoint" />
            <mxPoint x="520" y="649.71" as="targetPoint" />
            <Array as="points">
              <mxPoint x="510" y="649.71" />
            </Array>
          </mxGeometry>
        </mxCell>
        <mxCell id="NvFys0lCn05nDbWXE7hC-25" value="" style="endArrow=classic;html=1;rounded=0;" parent="1" edge="1">
          <mxGeometry width="50" height="50" relative="1" as="geometry">
            <mxPoint x="160.71" y="590" as="sourcePoint" />
            <mxPoint x="160.71" y="520" as="targetPoint" />
          </mxGeometry>
        </mxCell>
        <mxCell id="NvFys0lCn05nDbWXE7hC-27" value="WebAPI Server" style="text;strokeColor=none;align=center;fillColor=none;html=1;verticalAlign=middle;whiteSpace=wrap;rounded=0;" parent="1" vertex="1">
          <mxGeometry x="619" y="147" width="60" height="30" as="geometry" />
        </mxCell>
        <mxCell id="NvFys0lCn05nDbWXE7hC-29" value="Blazor Server &lt;br&gt;with InProc DataManagement" style="text;strokeColor=none;align=center;fillColor=none;html=1;verticalAlign=middle;whiteSpace=wrap;rounded=0;" parent="1" vertex="1">
          <mxGeometry x="125" y="535" width="260" height="30" as="geometry" />
        </mxCell>
        <mxCell id="NvFys0lCn05nDbWXE7hC-30" value="Blazor Server &lt;br&gt;consuming WebAPI via HTTP" style="text;strokeColor=none;align=center;fillColor=none;html=1;verticalAlign=middle;whiteSpace=wrap;rounded=0;" parent="1" vertex="1">
          <mxGeometry x="160" y="130" width="190" height="30" as="geometry" />
        </mxCell>
        <mxCell id="NvFys0lCn05nDbWXE7hC-31" value="" style="edgeStyle=orthogonalEdgeStyle;rounded=0;orthogonalLoop=1;jettySize=auto;html=1;" parent="1" edge="1">
          <mxGeometry relative="1" as="geometry">
            <mxPoint x="320" y="250" as="sourcePoint" />
            <mxPoint x="280" y="249.71" as="targetPoint" />
            <Array as="points">
              <mxPoint x="300" y="250" />
            </Array>
          </mxGeometry>
        </mxCell>
        <mxCell id="NvFys0lCn05nDbWXE7hC-32" value="" style="edgeStyle=orthogonalEdgeStyle;rounded=0;orthogonalLoop=1;jettySize=auto;html=1;" parent="1" edge="1">
          <mxGeometry relative="1" as="geometry">
            <mxPoint x="320" y="650.15" as="sourcePoint" />
            <mxPoint x="280" y="649.86" as="targetPoint" />
            <Array as="points">
              <mxPoint x="300" y="650.15" />
            </Array>
          </mxGeometry>
        </mxCell>
        <mxCell id="2QA_1mcrMwD4LG4JVAwG-1" value="HTTP Client" style="rounded=0;whiteSpace=wrap;html=1;" vertex="1" parent="1">
          <mxGeometry x="320" y="180" width="160" height="30" as="geometry" />
        </mxCell>
      </root>
    </mxGraphModel>
  </diagram>
</mxfile>
